<?xml version="1.0" encoding="UTF-8"?>
<svg version="1.1" xmlns="http://www.w3.org/2000/svg" width="368" height="371">
<path d="M0 0 C18.15 0 36.3 0 55 0 C55 11.22 55 22.44 55 34 C67.87 34 80.74 34 94 34 C93.67 28.72 93.34 23.44 93 18 C93 12.06 93 6.12 93 0 C113.46 0 133.92 0 155 0 C155 11.22 155 22.44 155 34 C167.54 34 180.08 34 193 34 C193.33 22.78 193.66 11.56 194 0 C212.15 0 230.3 0 249 0 C249.28076167 21.39136498 249.28076167 21.39136498 249.34179688 30.53515625 C249.38358489 36.76588861 249.43292814 42.99589844 249.52807617 49.22607422 C249.60433678 54.25117894 249.64603249 59.27550857 249.6641407 64.30114746 C249.67703893 66.21492714 249.70222728 68.12866609 249.7401104 70.04211426 C250.06094646 86.92426766 250.06094646 86.92426766 245.68041992 92.03417969 C243.85588074 93.62762451 243.85588074 93.62762451 242 95 C240.80438667 96.08248771 239.61352102 97.17026703 238.4296875 98.265625 C237.2499148 99.26648711 236.06503187 100.26135814 234.875 101.25 C234.28074219 101.75273437 233.68648437 102.25546875 233.07421875 102.7734375 C230.46698172 104.97203473 227.85253463 107.11170401 225.1328125 109.171875 C222.74788815 110.89884263 222.74788815 110.89884263 222 114 C222.04480036 115.86323112 222.1653748 117.72496682 222.32617188 119.58178711 C222.42402985 120.74954681 222.52188782 121.91730652 222.62271118 123.12045288 C222.7940004 125.05436386 222.7940004 125.05436386 222.96875 127.02734375 C223.08627242 128.40820052 223.20314707 129.78911255 223.31942749 131.17007446 C223.57308445 134.17201937 223.83017112 137.1736436 224.08978271 140.17507935 C224.72380847 147.51578806 225.33518015 154.85839846 225.9470787 162.20097923 C226.0927908 163.94945902 226.23868005 165.69792404 226.38473892 167.44637489 C228.13726414 188.43679369 229.78971718 209.43477152 231.40307617 230.43630981 C231.71556217 234.5018858 232.03124694 238.56719286 232.34985352 242.6322937 C232.72911812 247.47273941 233.10226594 252.31361966 233.47087479 257.15488815 C233.6072883 258.93443922 233.74568802 260.71383946 233.88633347 262.49306107 C236.62376704 297.20506162 236.62376704 297.20506162 227.75 308.3125 C222.03168536 314.43316941 216.22827756 316.34602681 208 317 C203.09634673 317.14478356 198.19365414 317.13694168 193.28833008 317.12939453 C191.80400042 317.1307515 190.3196711 317.1325331 188.83534241 317.13470459 C184.81799687 317.13924886 180.80067713 317.13750037 176.78333116 317.1343255 C172.55442123 317.13178021 168.32551341 317.13414603 164.09660339 317.13571167 C156.9824484 317.13752964 149.8683038 317.13513952 142.75415039 317.13037109 C134.58260913 317.12495641 126.41109294 317.12667218 118.23955232 317.1321975 C111.18688967 317.13677198 104.13423446 317.13735738 97.0815708 317.13475883 C92.88637012 317.13321617 88.6911811 317.13294549 84.49598122 317.13629532 C54.57658246 317.15660068 54.57658246 317.15660068 41.65893555 316.63232422 C40.84300588 316.60407625 40.02707621 316.57582829 39.18642139 316.54672432 C31.20945316 316.14697869 26.1417111 313.59532656 20.125 308.625 C14.60527594 301.80651734 12.80473721 296.06820243 12.8203125 287.37109375 C12.82153107 286.59092392 12.82274963 285.81075409 12.82400513 285.00694275 C12.93473812 273.66257407 13.96297584 262.36433571 14.875 251.0625 C15.05143368 248.81971269 15.22721735 246.57687414 15.40234375 244.33398438 C15.66694737 240.94893592 15.93235918 237.56396416 16.20075989 234.17921448 C16.8080607 226.5171635 17.38260717 218.85322415 17.94140625 211.1875 C19.09664141 195.41701574 20.37736528 179.65681774 21.65942383 163.89624023 C21.99912033 159.7201292 22.3370865 155.54388012 22.67458439 151.3675909 C22.93900265 148.09797147 23.20432177 144.8284256 23.46990776 141.55890083 C23.59495944 140.01813546 23.71973991 138.47734805 23.84422493 136.93653679 C23.96174779 135.48302627 24.07972591 134.02955247 24.19820309 132.57611942 C24.36133934 130.57450589 24.522879 128.57276242 24.68435669 126.5710144 C25.03035754 122.65655152 25.47851586 118.76180157 26.00535583 114.86769104 C26.17825491 112.73101858 26.17825491 112.73101858 24.1875 110.4375 C23.13655971 109.61010226 22.07174401 108.800267 21 108 C19.42900186 106.59276315 17.86744376 105.17495635 16.3125 103.75 C14.54235047 102.16590222 12.77148973 100.5825989 11 99 C9.14509134 97.33415917 7.29089515 95.66752458 5.4375 94 C4.61121094 93.2575 3.78492188 92.515 2.93359375 91.75 C1.93983036 90.85059394 0.94775971 89.94775971 0 89 C-0.09517803 86.23061034 -0.12554265 83.48622841 -0.11352539 80.71655273 C-0.11367142 79.84833893 -0.11381744 78.98012512 -0.1139679 78.08560181 C-0.11326846 75.20157414 -0.10547463 72.3176102 -0.09765625 69.43359375 C-0.09579218 67.43962133 -0.09436823 65.44564845 -0.09336853 63.45167542 C-0.08954248 58.19254298 -0.07971145 52.93343797 -0.06866455 47.67431641 C-0.05665815 41.3701255 -0.05204861 35.06592544 -0.04621124 28.76172638 C-0.03649974 19.17446515 -0.01734379 9.58726416 0 0 Z M10 87 C13.92204512 91.5757193 17.62663645 95.70953204 22.0625 99.6875 C22.56587891 100.14705078 23.06925781 100.60660156 23.58789062 101.08007812 C25.8991649 103.176072 27.92480869 104.96129113 30.71264648 106.39648438 C33.45019444 109.51242113 33.30196544 110.28326347 33.15625 114.30395508 C32.963459 116.6073007 32.74227844 118.90836412 32.5 121.20703125 C32.32923322 123.15947869 32.15854755 125.11193435 31.9903717 127.06460667 C31.80326701 129.1999519 31.60492096 131.33407069 31.40576172 133.46832275 C30.74692715 140.6624683 30.26058342 147.87002347 29.74655151 155.07564926 C29.43517564 159.40843216 29.11181434 163.74031776 28.7890625 168.07226562 C28.65785385 169.83699368 28.52666903 171.6017235 28.39550781 173.36645508 C28.33028931 174.24354126 28.2650708 175.12062744 28.19787598 176.02429199 C27.93380655 179.578396 27.67056611 183.13256121 27.40732384 186.68672657 C23.65080928 237.39868802 23.65080928 237.39868802 22.1484375 255.24609375 C22.08327942 256.02291 22.01812134 256.79972626 21.95098877 257.6000824 C21.6937112 260.6636973 21.43631633 263.72727706 21.171875 266.7902832 C18.7139297 285.03584125 18.7139297 285.03584125 24 302 C28.45740127 306.57787157 34.0160846 309.11754525 40.37475586 309.34057617 C41.98819646 309.34010763 43.60169279 309.32354326 45.21484375 309.29296875 C46.49845543 309.28660149 46.49845543 309.28660149 47.80799866 309.28010559 C50.5181642 309.26342789 53.22756248 309.22579705 55.9375 309.1875 C57.7844944 309.17243902 59.63150056 309.1587531 61.47851562 309.14648438 C65.98596884 309.11356026 70.49285472 309.06185469 75 309 C77.36331409 297.14177213 79.51422009 285.2619119 81.41079712 273.3203125 C81.63540662 271.90803104 81.86208338 270.49607667 82.09091187 269.08447266 C83.229683 262.03665323 84.33002528 255.159715 84 248 C80.37830859 249.55095581 77.87481981 251.76865052 75 254.4375 C73.34393208 255.96986773 71.67786725 257.4915328 70 259 C69.4225 259.58136719 68.845 260.16273438 68.25 260.76171875 C64.09814728 263.04667936 59.1985272 262.39607215 54.5546875 262.3515625 C52.27442477 262.39671622 50.22208963 262.48031099 48 263 C45.58414992 265.35553191 45.58414992 265.35553191 44 268 C40.37155329 269.2352159 38.7285627 269.30761536 35.1875 267.8125 C33 266 33 266 32.0625 264.1875 C31.97478364 261.11742729 32.83478947 258.82103601 34 256 C36 254 36 254 39.375 253.625 C43 254 43 254 45.375 255.875 C47 258 47 258 48 260 C58.70596815 261.1416335 58.70596815 261.1416335 68.375 257.5625 C69.61490839 256.40800752 70.82068486 255.21632294 72 254 C73.74297451 252.40893611 75.49332072 250.82591953 77.25 249.25 C78.05953125 248.49203125 78.8690625 247.7340625 79.703125 246.953125 C81.75791359 245.20585579 83.53865858 244.06131236 86 243 C86 240.36 86 237.72 86 235 C81.86076673 233.99654951 78.24041246 233.42502882 74 234 C68.76264634 237.39349132 65.24251767 241.76208685 62 247 C59.19084526 248.40457737 57.11189466 248.24895157 54 248 C51.625 246.9375 51.625 246.9375 50 245 C49.42508451 241.04745604 49.38627634 238.92058549 51.625 235.5625 C54.71685231 233.52838664 56.36367425 233.39394571 60 234 C62.375 236 62.375 236 64 238 C66.506734 236.92568543 67.95554816 236.05135124 69.76171875 233.96484375 C72.61721177 231.45818932 74.31076298 231.44732079 78.0625 231.3125 C81.36242182 231.16973453 83.85542634 231.04819122 87 230 C88.35439668 227.29120665 88.06501451 224.99066732 88 222 C87.43603516 222.00636475 86.87207031 222.01272949 86.29101562 222.01928711 C67.88331915 222.08147527 67.88331915 222.08147527 63.1875 217.875 C62.08212374 216.61982976 61.01772149 215.32723472 60 214 C58.83098038 212.73269997 57.64347171 211.48218849 56.4375 210.25 C55.87675781 209.67378906 55.31601563 209.09757812 54.73828125 208.50390625 C52.08195963 206.20574036 49.26503173 205.24071206 46 204 C44.49065783 200.98131566 44.82489328 198.32702771 45 195 C47 192 47 192 50.3125 191 C54 191 54 191 56.8125 193.1875 C59 196 59 196 59.92578125 197.97265625 C61.96863171 201.82807221 65.10285622 204.14248287 69 206 C73.05582906 206.48590617 76.93779807 206.36559817 81 206 C79.55708241 202.86538592 77.77282985 200.3044082 75.6875 197.5625 C67.45817603 185.9830337 64.78102867 172.97000926 66 159 C68.76244926 143.1198631 75.82467379 129.82382429 88.73828125 119.89453125 C94.49644383 116.07476003 100.43836509 113.1547283 107 111 C107.65742188 110.77441406 108.31484375 110.54882812 108.9921875 110.31640625 C123.21994133 106.30274029 138.60420098 108.6307827 151.5625 115.125 C165.92983096 123.30332685 175.73588266 135.50262404 180.359375 151.390625 C184.53295035 168.39030996 180.72110041 183.23489779 172 198 C170.11787071 200.83110204 168.17884048 203.38539142 166 206 C174.92734629 206.96675692 174.92734629 206.96675692 182.8125 203.625 C185.2133948 201.31342361 185.2133948 201.31342361 185 199 C185.99 198.67 186.98 198.34 188 198 C189.22520264 194.99152582 189.22520264 194.99152582 190 192 C198.091368 190.4093892 198.091368 190.4093892 201.5 192.625 C203.17783674 195.28157484 203.92319489 196.85099033 204 200 C203 202.625 203 202.625 201 205 C199.35435257 205.69117192 197.70482541 206.37559439 196.03125 206.99609375 C190.88527897 209.53939097 186.38431063 214.21354326 182.90234375 218.70703125 C178.58066931 222.12132855 174.54952095 221.7800902 169.1875 221.8125 C168.20845703 221.83763672 167.22941406 221.86277344 166.22070312 221.88867188 C163.81423171 221.9473663 161.40707326 221.97658903 159 222 C159.33 224.97 159.66 227.94 160 231 C161.62808594 231.00386719 161.62808594 231.00386719 163.2890625 231.0078125 C174.74468052 231.24385958 174.74468052 231.24385958 178.328125 233.40234375 C179.875 235.0625 179.875 235.0625 182 238 C182.66 238 183.32 238 184 238 C184.721875 237.154375 185.44375 236.30875 186.1875 235.4375 C189 233 189 233 192.6875 233 C196 234 196 234 198 237 C198.42660463 240.91054241 198.58646281 243.12030578 196.375 246.4375 C193.24316508 248.49791771 191.68455227 248.6767545 188 248 C185.49371752 245.93231695 183.55204709 243.65292879 181.4609375 241.1796875 C180.93757812 240.56351563 180.41421875 239.94734375 179.875 239.3125 C179.15957031 238.44044922 179.15957031 238.44044922 178.4296875 237.55078125 C176.01274474 234.92912476 174.42877234 234.02669815 170.86328125 233.8046875 C169.69152344 233.82789063 168.51976562 233.85109375 167.3125 233.875 C166.13300781 233.89304687 164.95351562 233.91109375 163.73828125 233.9296875 C162.83464844 233.95289063 161.93101562 233.97609375 161 234 C161.01298935 237.09796083 161.18937969 240.00070485 162 243 C164.59758176 244.6351132 164.59758176 244.6351132 168 246 C170.33038392 248.12231393 172.48765416 250.36198319 174.65625 252.6484375 C175.4296875 253.42445313 176.203125 254.20046875 177 255 C177.90621094 255.9178125 178.81242188 256.835625 179.74609375 257.78125 C183.9743482 260.66438148 186.61132204 260.57471398 191.5625 260.125 C192.30435547 260.09664062 193.04621094 260.06828125 193.81054688 260.0390625 C199.23279903 259.65279342 201.30499081 258.13473497 205 254 C208.49884179 253.51740113 210.76942356 253.36486377 213.9375 255 C215.66071832 258.24370507 215.52265149 261.4161041 215 265 C214 267 214 267 212 268 C206.42607683 268.70779977 206.42607683 268.70779977 204 268 C203.44054687 267.1646875 202.88109375 266.329375 202.3046875 265.46875 C200.33902217 262.85440332 200.33902217 262.85440332 198.11401367 262.70507812 C195.7591346 262.75307832 193.41437387 262.87264721 191.0625 263 C185.50530554 263.05513721 181.36671665 262.81452116 177.03515625 259.09375 C174.74522163 256.82184138 172.7040884 254.40166053 170.6640625 251.90625 C167.95353129 248.94930686 166.92273923 248.17117408 163 248 C164.89010891 261.78396501 167.01603834 275.52238996 169.28588867 289.24829102 C169.49318604 290.51213623 169.7004834 291.77598145 169.9140625 293.078125 C170.0992041 294.19606445 170.2843457 295.31400391 170.47509766 296.46582031 C171.09417431 300.63407781 171.56143947 304.80947517 172 309 C177.55007795 309.09938156 183.09963018 309.1717096 188.65039062 309.21972656 C190.53589916 309.23975767 192.42134623 309.26699073 194.30664062 309.30175781 C197.02749862 309.35065272 199.74753056 309.37305382 202.46875 309.390625 C203.71924133 309.42159271 203.71924133 309.42159271 204.99499512 309.45318604 C211.71575391 309.45572345 216.8620915 307.65328942 222.0234375 303.2890625 C222.46945312 302.73992187 222.91546875 302.19078125 223.375 301.625 C223.83648437 301.08101562 224.29796875 300.53703125 224.7734375 299.9765625 C228.05882865 294.68226975 228.20037697 289.67728432 227.76953125 283.6328125 C227.69156059 282.3495256 227.69156059 282.3495256 227.61201477 281.04031372 C227.42288256 278.02571064 227.21275985 275.0130257 227 272 C226.92086365 270.84640991 226.84172729 269.69281982 226.76019287 268.50427246 C226.15386308 259.69905678 225.50948995 250.89693239 224.85294724 242.09534454 C224.68529495 239.8454076 224.51845164 237.59541197 224.35183716 235.34539795 C221.20531611 192.87034568 217.75746052 150.42547467 214 108 C214.5976416 107.72454346 215.1952832 107.44908691 215.81103516 107.1652832 C217.89080558 106.05812904 219.32409897 104.96710494 221.0234375 103.35546875 C221.57 102.84306641 222.1165625 102.33066406 222.6796875 101.80273438 C223.51886719 101.00319336 223.51886719 101.00319336 224.375 100.1875 C225.48560873 99.13787096 226.59757997 98.08968164 227.7109375 97.04296875 C228.52256348 96.27799072 228.52256348 96.27799072 229.35058594 95.49755859 C230.99059696 94.00853734 232.68474414 92.62183748 234.4140625 91.23828125 C235.26742187 90.49964844 236.12078125 89.76101562 237 89 C237 88.34 237 87.68 237 87 C162.09 87 87.18 87 10 87 Z M101 120 C100.11957031 120.43441406 99.23914063 120.86882812 98.33203125 121.31640625 C85.37339771 128.36831381 78.11278022 138.82356585 73.12890625 152.3671875 C69.76713984 164.65502334 71.57454414 177.99648634 77.1328125 189.3046875 C81.96235142 197.52449877 88.36156578 203.45502847 96 209 C93.19894242 230.14328493 90.27784313 251.26437515 87.14404297 272.36108398 C85.33503859 284.56160171 83.64335811 296.77609169 82 309 C89.42564146 309.15631862 96.85141242 309.30440499 104.27740574 309.4429636 C107.7284021 309.50759217 111.17930722 309.57469414 114.63012695 309.64819336 C131.46433497 310.00473649 148.18654854 310.00268018 165 309 C164.46838204 299.79469223 163.50263963 290.77715139 162.0390625 281.67578125 C161.84782806 280.45005905 161.65659363 279.22433685 161.45956421 277.96147156 C160.6538357 272.79806157 159.83496753 267.6367615 159.01660156 262.4753418 C156.20600539 244.68818556 153.81194785 226.91786199 152 209 C152.61633301 208.60022949 153.23266602 208.20045898 153.86767578 207.78857422 C154.6770459 207.2576416 155.48641602 206.72670898 156.3203125 206.1796875 C157.12227051 205.65616699 157.92422852 205.13264648 158.75048828 204.59326172 C160.69997636 203.21249775 162.25464811 201.86423136 163.875 200.125 C164.57625 199.42375 165.2775 198.7225 166 198 C167.66666667 198 169.33333333 198 171 198 C170.61199219 197.33097656 170.22398437 196.66195312 169.82421875 195.97265625 C168.68185298 191.85255982 170.1183513 189.15877264 171.8125 185.4375 C177.511157 172.33699188 177.48774233 160.12765088 172.609375 146.734375 C167.18692768 133.37531306 155.91213226 123.79691532 143 118 C129.40694314 112.39788481 113.94417384 113.39654461 101 120 Z M50 195 C48.42726432 197.8424854 48.42726432 197.8424854 48 201 C50.97 201.495 50.97 201.495 54 202 C54.67958603 199.60280568 54.67958603 199.60280568 55 197 C54.34 196.34 53.68 195.68 53 195 C52.01 195 51.02 195 50 195 Z M195 195 C194.34 196.65 193.68 198.3 193 200 C193.66 200.66 194.32 201.32 195 202 C196.32 202 197.64 202 199 202 C199.67958603 199.60280568 199.67958603 199.60280568 200 197 C199.34 196.34 198.68 195.68 198 195 C197.01 195 196.02 195 195 195 Z M187 203 C185.700625 204.4540625 185.700625 204.4540625 184.375 205.9375 C180.06086957 209.84861188 175.21668875 209.71285344 169.68701172 209.77319336 C165.94815619 209.8165437 163.18328792 209.92716135 160 212 C160 213.65 160 215.3 160 217 C166.07692224 219.02564075 173.67810051 219.22815489 180 218 C183.37247693 215.87134515 185.15574151 213.49707146 187 210 C187.57427734 208.97132813 187.57427734 208.97132813 188.16015625 207.921875 C189.20021399 205.89139676 189.20021399 205.89139676 189 203 C188.34 203 187.68 203 187 203 Z M60 203 C59.34 203.66 58.68 204.32 58 205 C57.86693843 206.98366695 57.86693843 206.98366695 59 209 C60.99330842 210.34331654 62.99384866 211.67594012 65 213 C65.33902344 213.86109375 65.67804688 214.7221875 66.02734375 215.609375 C67.72962395 218.1948205 67.72962395 218.1948205 70.20410156 218.40454102 C73.0465774 218.49327138 75.84630579 218.43439942 78.6875 218.3125 C80.16959961 218.27866211 80.16959961 218.27866211 81.68164062 218.24414062 C84.12261559 218.18517988 86.56054868 218.10295048 89 218 C88.34 215.69 87.68 213.38 87 211 C82.6119585 210.1692868 78.39660701 209.88585963 73.9375 209.75 C66.40415184 209.27370823 66.40415184 209.27370823 63.75 206.5 C63.1725 205.675 62.595 204.85 62 204 C61.34 203.67 60.68 203.34 60 203 Z M55 237 C54.34 238.65 53.68 240.3 53 242 C53.99 242.99 54.98 243.98 56 245 C57.65 244.34 59.3 243.68 61 243 C60.67 241.35 60.34 239.7 60 238 C58.35 237.67 56.7 237.34 55 237 Z M189 237 C188.67 238.65 188.34 240.3 188 242 C190.97 242.495 190.97 242.495 194 243 C194.33 242.01 194.66 241.02 195 240 C193.68798827 238.43750191 193.68798827 238.43750191 192 237 C191.01 237 190.02 237 189 237 Z M37.1875 258.1875 C35.74709672 259.95054109 35.74709672 259.95054109 36.3125 262.1875 C36.539375 262.785625 36.76625 263.38375 37 264 C38.65 264.33 40.3 264.66 42 265 C42 264.34 42 263.68 42 263 C42.66 262.67 43.32 262.34 44 262 C43.67 260.68 43.34 259.36 43 258 C39.99251085 256.84137694 39.99251085 256.84137694 37.1875 258.1875 Z M206 258 C204.70366379 259.06645115 204.70366379 259.06645115 204.9375 261.5625 C204.958125 262.366875 204.97875 263.17125 205 264 C206.84725052 264.69159401 206.84725052 264.69159401 209 265 C209.99 264.34 210.98 263.68 212 263 C211.67 261.68 211.34 260.36 211 259 C209.34385343 258.61781233 207.67542976 258.28604898 206 258 Z " fill="#383564" transform="translate(60,31)"/>
<path d="M0 0 C18.15 0 36.3 0 55 0 C55 11.22 55 22.44 55 34 C67.87 34 80.74 34 94 34 C93.67 28.72 93.34 23.44 93 18 C93 12.06 93 6.12 93 0 C113.46 0 133.92 0 155 0 C155 11.22 155 22.44 155 34 C167.54 34 180.08 34 193 34 C193.33 22.78 193.66 11.56 194 0 C212.15 0 230.3 0 249 0 C249.28076167 21.39136498 249.28076167 21.39136498 249.34179688 30.53515625 C249.38358489 36.76588861 249.43292814 42.99589844 249.52807617 49.22607422 C249.60433678 54.25117894 249.64603249 59.27550857 249.6641407 64.30114746 C249.67703893 66.21492714 249.70222728 68.12866609 249.7401104 70.04211426 C250.06094646 86.92426766 250.06094646 86.92426766 245.68041992 92.03417969 C243.85588074 93.62762451 243.85588074 93.62762451 242 95 C240.80438667 96.08248771 239.61352102 97.17026703 238.4296875 98.265625 C237.2499148 99.26648711 236.06503187 100.26135814 234.875 101.25 C234.28074219 101.75273437 233.68648437 102.25546875 233.07421875 102.7734375 C230.46698172 104.97203473 227.85253463 107.11170401 225.1328125 109.171875 C222.74788815 110.89884263 222.74788815 110.89884263 222 114 C222.04480036 115.86323112 222.1653748 117.72496682 222.32617188 119.58178711 C222.42402985 120.74954681 222.52188782 121.91730652 222.62271118 123.12045288 C222.7940004 125.05436386 222.7940004 125.05436386 222.96875 127.02734375 C223.08627242 128.40820052 223.20314707 129.78911255 223.31942749 131.17007446 C223.57308445 134.17201937 223.83017112 137.1736436 224.08978271 140.17507935 C224.72380847 147.51578806 225.33518015 154.85839846 225.9470787 162.20097923 C226.0927908 163.94945902 226.23868005 165.69792404 226.38473892 167.44637489 C228.13726414 188.43679369 229.78971718 209.43477152 231.40307617 230.43630981 C231.71556217 234.5018858 232.03124694 238.56719286 232.34985352 242.6322937 C232.72911812 247.47273941 233.10226594 252.31361966 233.47087479 257.15488815 C233.6072883 258.93443922 233.74568802 260.71383946 233.88633347 262.49306107 C236.62376704 297.20506162 236.62376704 297.20506162 227.75 308.3125 C222.03168536 314.43316941 216.22827756 316.34602681 208 317 C203.09634673 317.14478356 198.19365414 317.13694168 193.28833008 317.12939453 C191.80400042 317.1307515 190.3196711 317.1325331 188.83534241 317.13470459 C184.81799687 317.13924886 180.80067713 317.13750037 176.78333116 317.1343255 C172.55442123 317.13178021 168.32551341 317.13414603 164.09660339 317.13571167 C156.9824484 317.13752964 149.8683038 317.13513952 142.75415039 317.13037109 C134.58260913 317.12495641 126.41109294 317.12667218 118.23955232 317.1321975 C111.18688967 317.13677198 104.13423446 317.13735738 97.0815708 317.13475883 C92.88637012 317.13321617 88.6911811 317.13294549 84.49598122 317.13629532 C54.57658246 317.15660068 54.57658246 317.15660068 41.65893555 316.63232422 C40.84300588 316.60407625 40.02707621 316.57582829 39.18642139 316.54672432 C31.20945316 316.14697869 26.1417111 313.59532656 20.125 308.625 C14.60527594 301.80651734 12.80473721 296.06820243 12.8203125 287.37109375 C12.82153107 286.59092392 12.82274963 285.81075409 12.82400513 285.00694275 C12.93473812 273.66257407 13.96297584 262.36433571 14.875 251.0625 C15.05143368 248.81971269 15.22721735 246.57687414 15.40234375 244.33398438 C15.66694737 240.94893592 15.93235918 237.56396416 16.20075989 234.17921448 C16.8080607 226.5171635 17.38260717 218.85322415 17.94140625 211.1875 C19.09664141 195.41701574 20.37736528 179.65681774 21.65942383 163.89624023 C21.99912033 159.7201292 22.3370865 155.54388012 22.67458439 151.3675909 C22.93900265 148.09797147 23.20432177 144.8284256 23.46990776 141.55890083 C23.59495944 140.01813546 23.71973991 138.47734805 23.84422493 136.93653679 C23.96174779 135.48302627 24.07972591 134.02955247 24.19820309 132.57611942 C24.36133934 130.57450589 24.522879 128.57276242 24.68435669 126.5710144 C25.03035754 122.65655152 25.47851586 118.76180157 26.00535583 114.86769104 C26.17825491 112.73101858 26.17825491 112.73101858 24.1875 110.4375 C23.13655971 109.61010226 22.07174401 108.800267 21 108 C19.42900186 106.59276315 17.86744376 105.17495635 16.3125 103.75 C14.54235047 102.16590222 12.77148973 100.5825989 11 99 C9.14509134 97.33415917 7.29089515 95.66752458 5.4375 94 C4.61121094 93.2575 3.78492188 92.515 2.93359375 91.75 C1.93983036 90.85059394 0.94775971 89.94775971 0 89 C-0.09517803 86.23061034 -0.12554265 83.48622841 -0.11352539 80.71655273 C-0.11367142 79.84833893 -0.11381744 78.98012512 -0.1139679 78.08560181 C-0.11326846 75.20157414 -0.10547463 72.3176102 -0.09765625 69.43359375 C-0.09579218 67.43962133 -0.09436823 65.44564845 -0.09336853 63.45167542 C-0.08954248 58.19254298 -0.07971145 52.93343797 -0.06866455 47.67431641 C-0.05665815 41.3701255 -0.05204861 35.06592544 -0.04621124 28.76172638 C-0.03649974 19.17446515 -0.01734379 9.58726416 0 0 Z M7 8 C6.85191241 10.38530535 6.76843798 12.74287299 6.7277832 15.13085938 C6.71157425 15.87732727 6.6953653 16.62379517 6.67866516 17.3928833 C6.53807256 24.30299211 6.46025329 31.21440373 6.39974689 38.12563324 C6.3588349 42.76839998 6.29864253 47.40904807 6.19067383 52.05078125 C6.08662322 56.53905342 6.03229453 61.02543909 6.01228905 65.5148468 C5.99640233 67.22138808 5.96327484 68.92786396 5.91213417 70.63371277 C5.44958044 80.34441129 5.44958044 80.34441129 9.19119263 89.01470947 C11.68760545 91.27886686 14.18611185 93.15488859 17 95 C22.25 99.75 22.25 99.75 24.578125 101.859375 C26.99583345 104.13406853 26.99583345 104.13406853 30.17871094 105.86694336 C32.36299094 107.71149575 32.94417162 108.60245021 33.34649658 111.46737671 C33.24245093 114.76463614 32.9336443 117.99135463 32.5625 121.26953125 C32.38477059 123.21522953 32.2071446 125.16093905 32.03269958 127.10693455 C31.83831868 129.23374296 31.63051302 131.35898267 31.421875 133.48443604 C30.73225053 140.67073247 30.25561297 147.87385357 29.74554443 155.07464218 C29.43596235 159.40786875 29.11207915 163.74002332 28.7890625 168.07226562 C28.65784296 169.83699287 28.52665818 171.60172269 28.39550781 173.36645508 C28.33028931 174.24354126 28.2650708 175.12062744 28.19787598 176.02429199 C27.93380655 179.578396 27.67056611 183.13256121 27.40732384 186.68672657 C23.65080928 237.39868802 23.65080928 237.39868802 22.1484375 255.24609375 C22.08327942 256.02291 22.01812134 256.79972626 21.95098877 257.6000824 C21.6937112 260.6636973 21.43631633 263.72727706 21.171875 266.7902832 C18.7139297 285.03584125 18.7139297 285.03584125 24 302 C28.45740127 306.57787157 34.0160846 309.11754525 40.37475586 309.34057617 C41.98819646 309.34010763 43.60169279 309.32354326 45.21484375 309.29296875 C46.07058487 309.28872391 46.92632599 309.28447906 47.80799866 309.28010559 C50.5181642 309.26342789 53.22756248 309.22579705 55.9375 309.1875 C57.7844944 309.17243902 59.63150056 309.1587531 61.47851562 309.14648438 C65.98596884 309.11356026 70.49285472 309.06185469 75 309 C77.36331409 297.14177213 79.51422009 285.2619119 81.41079712 273.3203125 C81.63540662 271.90803104 81.86208338 270.49607667 82.09091187 269.08447266 C83.229683 262.03665323 84.33002528 255.159715 84 248 C80.37830859 249.55095581 77.87481981 251.76865052 75 254.4375 C73.34393208 255.96986773 71.67786725 257.4915328 70 259 C69.4225 259.58136719 68.845 260.16273438 68.25 260.76171875 C64.09814728 263.04667936 59.1985272 262.39607215 54.5546875 262.3515625 C52.27442477 262.39671622 50.22208963 262.48031099 48 263 C45.58414992 265.35553191 45.58414992 265.35553191 44 268 C40.37155329 269.2352159 38.7285627 269.30761536 35.1875 267.8125 C33 266 33 266 32.0625 264.1875 C31.97478364 261.11742729 32.83478947 258.82103601 34 256 C36 254 36 254 39.375 253.625 C43 254 43 254 45.375 255.875 C47 258 47 258 48 260 C58.70596815 261.1416335 58.70596815 261.1416335 68.375 257.5625 C69.61490839 256.40800752 70.82068486 255.21632294 72 254 C73.74297451 252.40893611 75.49332072 250.82591953 77.25 249.25 C78.05953125 248.49203125 78.8690625 247.7340625 79.703125 246.953125 C81.75791359 245.20585579 83.53865858 244.06131236 86 243 C86 240.36 86 237.72 86 235 C81.86076673 233.99654951 78.24041246 233.42502882 74 234 C68.76264634 237.39349132 65.24251767 241.76208685 62 247 C59.19084526 248.40457737 57.11189466 248.24895157 54 248 C51.625 246.9375 51.625 246.9375 50 245 C49.42508451 241.04745604 49.38627634 238.92058549 51.625 235.5625 C54.71685231 233.52838664 56.36367425 233.39394571 60 234 C62.375 236 62.375 236 64 238 C66.506734 236.92568543 67.95554816 236.05135124 69.76171875 233.96484375 C72.61721177 231.45818932 74.31076298 231.44732079 78.0625 231.3125 C81.36242182 231.16973453 83.85542634 231.04819122 87 230 C88.35439668 227.29120665 88.06501451 224.99066732 88 222 C87.43603516 222.00636475 86.87207031 222.01272949 86.29101562 222.01928711 C67.88331915 222.08147527 67.88331915 222.08147527 63.1875 217.875 C62.08212374 216.61982976 61.01772149 215.32723472 60 214 C58.83098038 212.73269997 57.64347171 211.48218849 56.4375 210.25 C55.87675781 209.67378906 55.31601563 209.09757813 54.73828125 208.50390625 C52.08195963 206.20574036 49.26503173 205.24071206 46 204 C44.49065783 200.98131566 44.82489328 198.32702771 45 195 C47 192 47 192 50.3125 191 C54 191 54 191 56.8125 193.1875 C59 196 59 196 59.92578125 197.97265625 C61.96863171 201.82807221 65.10285622 204.14248287 69 206 C73.05582906 206.48590617 76.93779807 206.36559817 81 206 C79.55708241 202.86538592 77.77282985 200.3044082 75.6875 197.5625 C67.45817603 185.9830337 64.78102867 172.97000926 66 159 C68.76244926 143.1198631 75.82467379 129.82382429 88.73828125 119.89453125 C94.49644383 116.07476003 100.43836509 113.1547283 107 111 C107.65742188 110.77441406 108.31484375 110.54882812 108.9921875 110.31640625 C123.21994133 106.30274029 138.60420098 108.6307827 151.5625 115.125 C165.92983096 123.30332685 175.73588266 135.50262404 180.359375 151.390625 C184.53295035 168.39030996 180.72110041 183.23489779 172 198 C170.11787071 200.83110204 168.17884048 203.38539142 166 206 C174.92734629 206.96675692 174.92734629 206.96675692 182.8125 203.625 C185.2133948 201.31342361 185.2133948 201.31342361 185 199 C185.99 198.67 186.98 198.34 188 198 C189.22520264 194.99152582 189.22520264 194.99152582 190 192 C198.091368 190.4093892 198.091368 190.4093892 201.5 192.625 C203.17783674 195.28157484 203.92319489 196.85099033 204 200 C203 202.625 203 202.625 201 205 C199.35435257 205.69117192 197.70482541 206.37559439 196.03125 206.99609375 C190.88527897 209.53939097 186.38431063 214.21354326 182.90234375 218.70703125 C178.58066931 222.12132855 174.54952095 221.7800902 169.1875 221.8125 C168.20845703 221.83763672 167.22941406 221.86277344 166.22070312 221.88867188 C163.81423171 221.9473663 161.40707326 221.97658903 159 222 C159.33 224.97 159.66 227.94 160 231 C161.62808594 231.00386719 161.62808594 231.00386719 163.2890625 231.0078125 C174.74468052 231.24385958 174.74468052 231.24385958 178.328125 233.40234375 C179.875 235.0625 179.875 235.0625 182 238 C182.66 238 183.32 238 184 238 C184.721875 237.154375 185.44375 236.30875 186.1875 235.4375 C189 233 189 233 192.6875 233 C196 234 196 234 198 237 C198.42660463 240.91054241 198.58646281 243.12030578 196.375 246.4375 C193.24316508 248.49791771 191.68455227 248.6767545 188 248 C185.49371752 245.93231695 183.55204709 243.65292879 181.4609375 241.1796875 C180.93757812 240.56351563 180.41421875 239.94734375 179.875 239.3125 C179.15957031 238.44044922 179.15957031 238.44044922 178.4296875 237.55078125 C176.01274474 234.92912476 174.42877234 234.02669815 170.86328125 233.8046875 C169.69152344 233.82789063 168.51976562 233.85109375 167.3125 233.875 C166.13300781 233.89304687 164.95351562 233.91109375 163.73828125 233.9296875 C162.83464844 233.95289063 161.93101562 233.97609375 161 234 C161.01298935 237.09796083 161.18937969 240.00070485 162 243 C164.59758176 244.6351132 164.59758176 244.6351132 168 246 C170.33038392 248.12231393 172.48765416 250.36198319 174.65625 252.6484375 C175.4296875 253.42445313 176.203125 254.20046875 177 255 C177.90621094 255.9178125 178.81242188 256.835625 179.74609375 257.78125 C183.9743482 260.66438148 186.61132204 260.57471398 191.5625 260.125 C192.30435547 260.09664062 193.04621094 260.06828125 193.81054688 260.0390625 C199.23279903 259.65279342 201.30499081 258.13473497 205 254 C208.49884179 253.51740113 210.76942356 253.36486377 213.9375 255 C215.66071832 258.24370507 215.52265149 261.4161041 215 265 C214 267 214 267 212 268 C206.42607683 268.70779977 206.42607683 268.70779977 204 268 C203.44054687 267.1646875 202.88109375 266.329375 202.3046875 265.46875 C200.33902217 262.85440332 200.33902217 262.85440332 198.11401367 262.70507812 C195.7591346 262.75307832 193.41437387 262.87264721 191.0625 263 C185.50530554 263.05513721 181.36671665 262.81452116 177.03515625 259.09375 C174.74522163 256.82184138 172.7040884 254.40166053 170.6640625 251.90625 C167.95353129 248.94930686 166.92273923 248.17117408 163 248 C164.89010891 261.78396501 167.01603834 275.52238996 169.28588867 289.24829102 C169.49318604 290.51213623 169.7004834 291.77598145 169.9140625 293.078125 C170.0992041 294.19606445 170.2843457 295.31400391 170.47509766 296.46582031 C171.09417431 300.63407781 171.56143947 304.80947517 172 309 C177.55007795 309.09938156 183.09963018 309.1717096 188.65039062 309.21972656 C190.53589916 309.23975767 192.42134623 309.26699073 194.30664062 309.30175781 C197.02749862 309.35065272 199.74753056 309.37305382 202.46875 309.390625 C203.71924133 309.42159271 203.71924133 309.42159271 204.99499512 309.45318604 C211.71575391 309.45572345 216.8620915 307.65328942 222.0234375 303.2890625 C222.46945312 302.73992187 222.91546875 302.19078125 223.375 301.625 C223.83648437 301.08101563 224.29796875 300.53703125 224.7734375 299.9765625 C228.05882865 294.68226975 228.20037697 289.67728432 227.76953125 283.6328125 C227.69156059 282.3495256 227.69156059 282.3495256 227.61201477 281.04031372 C227.42288256 278.02571064 227.21275985 275.0130257 227 272 C226.92086365 270.84640991 226.84172729 269.69281982 226.76019287 268.50427246 C226.15386308 259.69905678 225.50948995 250.89693239 224.85294724 242.09534454 C224.68529495 239.8454076 224.51845164 237.59541197 224.35183716 235.34539795 C221.20531611 192.87034568 217.75746052 150.42547467 214 108 C214.5976416 107.72454346 215.1952832 107.44908691 215.81103516 107.1652832 C217.89080558 106.05812904 219.32409897 104.96710494 221.0234375 103.35546875 C221.57 102.84306641 222.1165625 102.33066406 222.6796875 101.80273438 C223.23914063 101.26970703 223.79859375 100.73667969 224.375 100.1875 C225.48560873 99.13787096 226.59757997 98.08968164 227.7109375 97.04296875 C228.52256348 96.27799072 228.52256348 96.27799072 229.35058594 95.49755859 C230.99059696 94.00853734 232.68474414 92.62183748 234.4140625 91.23828125 C235.26742187 90.49964844 236.12078125 89.76101562 237 89 C237 88.34 237 87.68 237 87 C238.32 86.67 239.64 86.34 241 86 C241 59.93 241 33.86 241 7 C228.13 7 215.26 7 202 7 C200.62682912 8.14588101 200.62682912 8.14588101 200.88647461 11.23461914 C200.88672562 12.66814125 200.89228392 14.10166942 200.90234375 15.53515625 C200.90335083 16.20252808 200.90435791 16.8698999 200.90539551 17.55749512 C200.91064192 20.0591808 200.92460309 22.56084206 200.9375 25.0625 C200.9684375 33.4465625 200.9684375 33.4465625 201 42 C183.18 42 165.36 42 147 42 C147 30.45 147 18.9 147 7 C131.82 7 116.64 7 101 7 C101 18.55 101 30.1 101 42 C83.18 42 65.36 42 47 42 C47 30.45 47 18.9 47 7 C41.4640601 6.97709266 35.92828345 6.95716509 30.39233398 6.94506836 C28.5075627 6.94002756 26.62279535 6.93319502 24.73803711 6.92456055 C22.03498364 6.91248383 19.33198169 6.90676932 16.62890625 6.90234375 C15.78099014 6.89718246 14.93307404 6.89202118 14.0594635 6.88670349 C10.22089966 6.50573918 10.22089966 6.50573918 7 8 Z M101 120 C100.11957031 120.43441406 99.23914063 120.86882812 98.33203125 121.31640625 C85.37339771 128.36831381 78.11278022 138.82356585 73.12890625 152.3671875 C69.76713984 164.65502334 71.57454414 177.99648634 77.1328125 189.3046875 C81.96235142 197.52449877 88.36156578 203.45502847 96 209 C93.19894242 230.14328493 90.27784313 251.26437515 87.14404297 272.36108398 C85.33503859 284.56160171 83.64335811 296.77609169 82 309 C89.42564146 309.15631862 96.85141242 309.30440499 104.27740574 309.4429636 C107.7284021 309.50759217 111.17930722 309.57469414 114.63012695 309.64819336 C131.46433497 310.00473649 148.18654854 310.00268018 165 309 C164.46838204 299.79469223 163.50263963 290.77715139 162.0390625 281.67578125 C161.84782806 280.45005905 161.65659363 279.22433685 161.45956421 277.96147156 C160.6538357 272.79806157 159.83496753 267.6367615 159.01660156 262.4753418 C156.20600539 244.68818556 153.81194785 226.91786199 152 209 C152.61633301 208.60022949 153.23266602 208.20045898 153.86767578 207.78857422 C154.6770459 207.2576416 155.48641602 206.72670898 156.3203125 206.1796875 C157.12227051 205.65616699 157.92422852 205.13264648 158.75048828 204.59326172 C160.69997636 203.21249775 162.25464811 201.86423136 163.875 200.125 C164.57625 199.42375 165.2775 198.7225 166 198 C167.66666667 198 169.33333333 198 171 198 C170.61199219 197.33097656 170.22398437 196.66195312 169.82421875 195.97265625 C168.68185298 191.85255982 170.1183513 189.15877264 171.8125 185.4375 C177.511157 172.33699188 177.48774233 160.12765088 172.609375 146.734375 C167.18692768 133.37531306 155.91213226 123.79691532 143 118 C129.40694314 112.39788481 113.94417384 113.39654461 101 120 Z M50 195 C48.42726432 197.8424854 48.42726432 197.8424854 48 201 C50.97 201.495 50.97 201.495 54 202 C54.67958603 199.60280568 54.67958603 199.60280568 55 197 C54.34 196.34 53.68 195.68 53 195 C52.01 195 51.02 195 50 195 Z M195 195 C194.34 196.65 193.68 198.3 193 200 C193.66 200.66 194.32 201.32 195 202 C196.32 202 197.64 202 199 202 C199.67958603 199.60280568 199.67958603 199.60280568 200 197 C199.34 196.34 198.68 195.68 198 195 C197.01 195 196.02 195 195 195 Z M187 203 C185.700625 204.4540625 185.700625 204.4540625 184.375 205.9375 C180.06086957 209.84861188 175.21668875 209.71285344 169.68701172 209.77319336 C165.94815619 209.8165437 163.18328792 209.92716135 160 212 C160 213.65 160 215.3 160 217 C166.07692224 219.02564075 173.67810051 219.22815489 180 218 C183.37247693 215.87134515 185.15574151 213.49707146 187 210 C187.57427734 208.97132813 187.57427734 208.97132813 188.16015625 207.921875 C189.20021399 205.89139676 189.20021399 205.89139676 189 203 C188.34 203 187.68 203 187 203 Z M60 203 C59.34 203.66 58.68 204.32 58 205 C57.86693843 206.98366695 57.86693843 206.98366695 59 209 C60.99330842 210.34331654 62.99384866 211.67594012 65 213 C65.33902344 213.86109375 65.67804688 214.7221875 66.02734375 215.609375 C67.72962395 218.1948205 67.72962395 218.1948205 70.20410156 218.40454102 C73.0465774 218.49327138 75.84630579 218.43439942 78.6875 218.3125 C80.16959961 218.27866211 80.16959961 218.27866211 81.68164062 218.24414062 C84.12261559 218.18517988 86.56054868 218.10295048 89 218 C88.34 215.69 87.68 213.38 87 211 C82.6119585 210.1692868 78.39660701 209.88585963 73.9375 209.75 C66.40415184 209.27370823 66.40415184 209.27370823 63.75 206.5 C63.1725 205.675 62.595 204.85 62 204 C61.34 203.67 60.68 203.34 60 203 Z M55 237 C54.34 238.65 53.68 240.3 53 242 C53.99 242.99 54.98 243.98 56 245 C57.65 244.34 59.3 243.68 61 243 C60.67 241.35 60.34 239.7 60 238 C58.35 237.67 56.7 237.34 55 237 Z M189 237 C188.67 238.65 188.34 240.3 188 242 C190.97 242.495 190.97 242.495 194 243 C194.33 242.01 194.66 241.02 195 240 C193.68798827 238.43750191 193.68798827 238.43750191 192 237 C191.01 237 190.02 237 189 237 Z M37.1875 258.1875 C35.74709672 259.95054109 35.74709672 259.95054109 36.3125 262.1875 C36.539375 262.785625 36.76625 263.38375 37 264 C38.65 264.33 40.3 264.66 42 265 C42 264.34 42 263.68 42 263 C42.66 262.67 43.32 262.34 44 262 C43.67 260.68 43.34 259.36 43 258 C39.99251085 256.84137694 39.99251085 256.84137694 37.1875 258.1875 Z M206 258 C204.70366379 259.06645115 204.70366379 259.06645115 204.9375 261.5625 C204.958125 262.366875 204.97875 263.17125 205 264 C206.84725052 264.69159401 206.84725052 264.69159401 209 265 C209.99 264.34 210.98 263.68 212 263 C211.67 261.68 211.34 260.36 211 259 C209.34385343 258.61781233 207.67542976 258.28604898 206 258 Z " fill="#79CF82" transform="translate(60,31)"/>
<path d="M0 0 C2.56142407 2.63065175 3.83859061 4.51577183 5 8 C9.20167782 12.62760132 13.30952289 14.37683143 19.5 14.875 C21.33254407 14.94304 23.16620343 14.99388734 25 15 C25 15.66 25 16.32 25 17 C26.32 17.66 27.64 18.32 29 19 C28.01 19 27.02 19 26 19 C25.505 20.485 25.505 20.485 25 22 C25 21.01 25 20.02 25 19 C24.04738281 19.05800781 23.09476563 19.11601562 22.11328125 19.17578125 C11.94262977 19.54163202 11.94262977 19.54163202 9.0625 17.88671875 C7.8125 16.5 7.8125 16.5 6 14 C5.01 14 4.02 14 3 14 C3 14.99 3 15.98 3 17 C3.7425 17.185625 4.485 17.37125 5.25 17.5625 C8 19 8 19 9.5 22.53125 C10.45734642 24.48152688 10.45734642 24.48152688 12 26 C15.57002728 27.03878195 19.05204491 26.97935435 22.75 26.9375 C23.73355469 26.95361328 24.71710938 26.96972656 25.73046875 26.98632812 C28.15505929 27.0216377 30.57540513 27.02508421 33 27 C33 27.33 33 27.66 33 28 C29.7 28.33 26.4 28.66 23 29 C25.97 29.33 28.94 29.66 32 30 C32 30.33 32 30.66 32 31 C14.48380664 32.13855257 14.48380664 32.13855257 9.13671875 29.6875 C7.16141544 27.9140814 5.59589566 26.11826357 4 24 C2.83226852 22.73151293 1.64478299 21.48090375 0.4375 20.25 C-0.12453125 19.6725 -0.6865625 19.095 -1.265625 18.5 C-3.91309131 16.2102994 -6.75807108 15.27134467 -10 14 C-12.47342266 10.28986601 -12.38503486 8.38939738 -12 4 C-9.10873021 -1.23182153 -5.51357351 -1.57530672 0 0 Z M-6 4 C-7.57273568 6.8424854 -7.57273568 6.8424854 -8 10 C-5.03 10.495 -5.03 10.495 -2 11 C-1.32041397 8.60280568 -1.32041397 8.60280568 -1 6 C-1.66 5.34 -2.32 4.68 -3 4 C-3.99 4 -4.98 4 -6 4 Z " fill="#89D394" transform="translate(116,222)"/>
<path d="M0 0 C0.99 0.33 1.98 0.66 3 1 C2.99097656 2.08539063 2.98195312 3.17078125 2.97265625 4.2890625 C2.80749673 12.20109556 2.80749673 12.20109556 5.58984375 19.328125 C7.33025038 20.73753405 9.07862083 21.86035843 11 23 C12.52375135 26.04750271 12.03211018 29.19880149 11.96484375 32.53515625 C11.9588081 34.08267395 11.95564804 35.63020501 11.95507812 37.17773438 C11.95336724 39.6128166 11.93801809 42.04301562 11.87329102 44.47729492 C11.37296423 54.28666595 11.37296423 54.28666595 15.26220703 62.88452148 C17.04135512 64.37897419 18.86824328 65.81898579 20.74438477 67.18969727 C23 69 23 69 24.125 72.65234375 C24.08375 73.73644531 24.0425 74.82054687 24 75.9375 C23.96218986 77.95797959 23.95362293 79.9796989 24 82 C24.66 82.66 25.32 83.32 26 84 C25.44444444 88.55555556 25.44444444 88.55555556 24 90 C21.5625 90.1875 21.5625 90.1875 19 90 C18.34 89.34 17.68 88.68 17 88 C17.375 84.875 17.375 84.875 18 82 C18.66 82 19.32 82 20 82 C20.26633788 76.99284789 19.93096744 73.30621343 16.96484375 69.14453125 C14.71493289 66.6735515 12.42011395 64.30376231 10 62 C9 61 9 61 8.92163086 57.78466797 C8.93403114 56.35382237 8.94859943 54.92299462 8.96484375 53.4921875 C8.96112777 51.93228509 8.95519576 50.37238668 8.94726562 48.8125 C8.93674226 46.34954332 8.93727347 43.88946915 8.97583008 41.42675781 C9.50504093 32.01283861 9.50504093 32.01283861 6.17431641 23.6706543 C4.74339617 22.58738833 3.27996672 21.54535768 1.78344727 20.5546875 C0 19 0 19 -0.65649414 16.7109375 C-0.78324762 14.11931264 -0.70452436 11.64855324 -0.5 9.0625 C-0.46390625 8.18787109 -0.4278125 7.31324219 -0.390625 6.41210938 C-0.29710417 4.27282031 -0.15362501 2.13581441 0 0 Z " fill="#3E4160" transform="translate(174,239)"/>
<path d="M0 0 C3.49729434 0.87432358 6.02195787 1.89482753 9.203125 3.50390625 C10.1828125 3.99697266 11.1625 4.49003906 12.171875 4.99804688 C13.18765625 5.51431641 14.2034375 6.03058594 15.25 6.5625 C16.796875 7.34270508 16.796875 7.34270508 18.375 8.13867188 C20.91848278 9.42218865 23.45948259 10.71062369 26 12 C26 15.96 26 19.92 26 24 C20.1899059 22.32067048 14.99131421 19.60791608 9.625 16.875 C8.69816406 16.40707031 7.77132812 15.93914062 6.81640625 15.45703125 C4.54243112 14.30832216 2.27096212 13.15465429 0 12 C0 8.04 0 4.08 0 0 Z " fill="#36345E" transform="translate(156,214)"/>
<path d="M0 0 C0 3.96 0 7.92 0 12 C-8.64525196 16.04845132 -17.3011058 20.06762317 -26 24 C-26 20.04 -26 16.08 -26 12 C-22.04404494 9.9951721 -18.08543111 7.99594939 -14.125 6 C-12.99707031 5.42765625 -11.86914062 4.8553125 -10.70703125 4.265625 C-9.63066406 3.72421875 -8.55429688 3.1828125 -7.4453125 2.625 C-6.45031738 2.12226563 -5.45532227 1.61953125 -4.43017578 1.1015625 C-2 0 -2 0 0 0 Z " fill="#3B3860" transform="translate(182,156)"/>
<path d="M0 0 C0 3.3 0 6.6 0 10 C-2.49863124 11.41912551 -4.99884281 12.8353384 -7.5 14.25 C-8.19609375 14.64574219 -8.8921875 15.04148438 -9.609375 15.44921875 C-22.97797131 23 -22.97797131 23 -26 23 C-26 19.04 -26 15.08 -26 11 C-22.23248462 9.15956426 -18.4613222 7.32741896 -14.6875 5.5 C-13.61564453 4.97535156 -12.54378906 4.45070312 -11.43945312 3.91015625 C-10.41142578 3.41386719 -9.38339844 2.91757813 -8.32421875 2.40625 C-7.37635498 1.94541016 -6.42849121 1.48457031 -5.4519043 1.00976562 C-3 0 -3 0 0 0 Z " fill="#3B3960" transform="translate(212,215)"/>
<path d="M0 0 C5.00981076 1.50765465 9.48819194 3.62567899 14.125 6 C14.82753906 6.35578125 15.53007812 6.7115625 16.25390625 7.078125 C17.56100509 7.74032252 18.8672685 8.40417396 20.17236328 9.0703125 C22.11025218 10.05608339 24.05533394 11.02766697 26 12 C26 15.63 26 19.26 26 23 C16.88411104 20.34810503 8.5225941 16.1194169 0 12 C0 8.04 0 4.08 0 0 Z " fill="#3D3C64" transform="translate(186,156)"/>
<path d="M0 0 C0.10884119 1.41493551 0.18597617 2.83232943 0.25 4.25 C0.29640625 5.03890625 0.3428125 5.8278125 0.390625 6.640625 C-0.14482756 9.87475848 -1.5722019 10.8454402 -4 13 C-6.25830078 14.37207031 -6.25830078 14.37207031 -8.6953125 15.578125 C-10.01595703 16.23554688 -10.01595703 16.23554688 -11.36328125 16.90625 C-12.27464844 17.3496875 -13.18601563 17.793125 -14.125 18.25 C-15.04410156 18.70890625 -15.96320313 19.1678125 -16.91015625 19.640625 C-23.71888951 23 -23.71888951 23 -26 23 C-26.47536067 19.2301258 -26.64487476 15.75732816 -26 12 C-23.89122653 9.31312041 -21.08894028 8.33068755 -18 7 C-16.74230558 6.38920745 -15.4872907 5.77287986 -14.234375 5.15234375 C-3.67514023 0 -3.67514023 0 0 0 Z " fill="#3A3764" transform="translate(212,199)"/>
<path d="M0 0 C0.32227181 4.22772558 0.24423674 7.92559476 -1 12 C-4.37781289 15.0945221 -8.20706538 16.58813374 -12.4375 18.25 C-13.51322266 18.72050781 -14.58894531 19.19101563 -15.69726562 19.67578125 C-23.41662491 23 -23.41662491 23 -26 23 C-26 19.37 -26 15.74 -26 12 C-24.92621094 11.46890625 -23.85242188 10.9378125 -22.74609375 10.390625 C-21.30984158 9.67719255 -19.87364672 8.96364471 -18.4375 8.25 C-17.73302734 7.90195313 -17.02855469 7.55390625 -16.30273438 7.1953125 C-12.84942921 5.47661684 -9.47335795 3.71131303 -6.16015625 1.734375 C-3 0 -3 0 0 0 Z " fill="#37355E" transform="translate(182,172)"/>
<path d="M0 0 C0.72574219 0.00128906 1.45148438 0.00257813 2.19921875 0.00390625 C1.86921875 1.65390625 1.53921875 3.30390625 1.19921875 5.00390625 C0.02166016 4.89949219 0.02166016 4.89949219 -1.1796875 4.79296875 C-8.47992247 4.31366076 -8.47992247 4.31366076 -14.73828125 7.56640625 C-17.83866996 10.7424142 -20.29484653 14.35240137 -22.80078125 18.00390625 C-25.65402562 19.43052844 -27.63532674 19.31424493 -30.80078125 19.00390625 C-33.67578125 17.44140625 -33.67578125 17.44140625 -35.80078125 15.00390625 C-36.42578125 11.56640625 -36.42578125 11.56640625 -35.80078125 8.00390625 C-33.32148598 4.57664515 -31.94595256 3.190873 -27.73828125 2.50390625 C-24.55475398 3.04578323 -23.07137063 3.73331687 -20.80078125 6.00390625 C-20.80078125 6.66390625 -20.80078125 7.32390625 -20.80078125 8.00390625 C-20.33929688 7.51019531 -19.8778125 7.01648438 -19.40234375 6.5078125 C-14.82104029 2.00799467 -11.64008875 0.21602915 -5.1953125 -0.0234375 C-3.46363695 -0.00366306 -1.73178677 0.00241532 0 0 Z M-29.80078125 7.00390625 C-30.46078125 8.65390625 -31.12078125 10.30390625 -31.80078125 12.00390625 C-30.81078125 12.99390625 -29.82078125 13.98390625 -28.80078125 15.00390625 C-27.15078125 14.34390625 -25.50078125 13.68390625 -23.80078125 13.00390625 C-24.13078125 11.35390625 -24.46078125 9.70390625 -24.80078125 8.00390625 C-26.45078125 7.67390625 -28.10078125 7.34390625 -29.80078125 7.00390625 Z " fill="#82D28E" transform="translate(144.80078125,260.99609375)"/>
<path d="M0 0 C0.66 0.99 1.32 1.98 2 3 C1.30940309 6.31486518 0.64382346 8.37837735 -1.8125 10.75 C-4 12 -4 12 -6.25 12.75 C-12.37954945 15.53615884 -16.96780203 20.72712573 -21 26 C-23.45275141 27.2263757 -25.0505781 27.11415314 -27.7890625 27.09765625 C-28.73007813 27.09443359 -29.67109375 27.09121094 -30.640625 27.08789062 C-32.11789063 27.07532227 -32.11789063 27.07532227 -33.625 27.0625 C-34.61757812 27.05798828 -35.61015625 27.05347656 -36.6328125 27.04882812 C-39.0886016 27.03702145 -41.54427104 27.020554 -44 27 C-44 26.67 -44 26.34 -44 26 C-38.06 26 -32.12 26 -26 26 C-26 25.34 -26 24.68 -26 24 C-31.94 24 -37.88 24 -44 24 C-44 21.69 -44 19.38 -44 17 C-43.67 17 -43.34 17 -43 17 C-42.67 18.65 -42.34 20.3 -42 22 C-40.35 22.33 -38.7 22.66 -37 23 C-37 21.02 -37 19.04 -37 17 C-36.67 17 -36.34 17 -36 17 C-36 18.98 -36 20.96 -36 23 C-31.71 23 -27.42 23 -23 23 C-22.34 21.68 -21.68 20.36 -21 19 C-19.4921875 17.5078125 -19.4921875 17.5078125 -17.875 16.125 C-15.34269313 13.71562065 -15.0338025 13.30422253 -14.625 9.625 C-14.74875 8.75875 -14.8725 7.8925 -15 7 C-14.01 6.67 -13.02 6.34 -12 6 C-10.78130071 3.49552484 -10.78130071 3.49552484 -10 1 C-9.938125 1.61875 -9.87625 2.2375 -9.8125 2.875 C-9.171081 5.27761141 -9.171081 5.27761141 -6.4375 6.25 C-5.633125 6.4975 -4.82875 6.745 -4 7 C-3.67 5.35 -3.34 3.7 -3 2 C-2.01 2.33 -1.02 2.66 0 3 C0 2.01 0 1.02 0 0 Z " fill="#8FD79A" transform="translate(263,226)"/>
<path d="M0 0 C2.5625 0.1875 2.5625 0.1875 4.5625 2.1875 C4.2856641 5.32497356 3.28539883 8.26459045 2.3125 11.25 C2.10109375 11.90097656 1.8896875 12.55195313 1.671875 13.22265625 C0.5625 15.1875 0.5625 15.1875 -2 16.73828125 C-5.88591452 20.64287805 -5.18071732 25.01523037 -5.1875 30.3125 C-5.22058083 32.31516281 -5.2568776 34.31777589 -5.296875 36.3203125 C-5.30170898 37.20605957 -5.30654297 38.09180664 -5.31152344 39.00439453 C-5.4375 41.1875 -5.4375 41.1875 -6.4375 43.1875 C-5.4475 43.5175 -4.4575 43.8475 -3.4375 44.1875 C-3.4375 45.8375 -3.4375 47.4875 -3.4375 49.1875 C-4.7575 49.8475 -6.0775 50.5075 -7.4375 51.1875 C-8.4275 50.5275 -9.4175 49.8675 -10.4375 49.1875 C-9.5625 44.4375 -9.5625 44.4375 -8.4375 42.1875 C-8.42381472 40.44235344 -8.47165565 38.69653056 -8.55078125 36.953125 C-8.58107422 35.90382813 -8.61136719 34.85453125 -8.64257812 33.7734375 C-8.71371323 31.56436904 -8.80459681 29.35584084 -8.91601562 27.1484375 C-9.0963666 19.17399972 -9.0963666 19.17399972 -7.09716797 16.18066406 C-5.44921875 14.59375 -5.44921875 14.59375 -2.4375 12.1875 C-1.76772506 9.51430295 -1.76772506 9.51430295 -2.4375 7.1875 C-3.0975 6.5275 -3.7575 5.8675 -4.4375 5.1875 C-3.69457547 0.28419811 -3.69457547 0.28419811 0 0 Z " fill="#434764" transform="translate(166.4375,271.8125)"/>
<path d="M0 0 C0.99 0 1.98 0 3 0 C3 18.48 3 36.96 3 56 C3.99 56.33 4.98 56.66 6 57 C8.75 59.875 8.75 59.875 11 63 C10.67 63.99 10.34 64.98 10 66 C5.20244962 64.40081654 2.53002883 61.32692344 0 57 C-0.93186284 52.56240793 -0.81899664 48.26798392 -0.68359375 43.75 C-0.67368912 42.49614502 -0.66378448 41.24229004 -0.65357971 39.95043945 C-0.62117522 36.64175178 -0.5584735 33.33551969 -0.48065186 30.02764893 C-0.40860866 26.64243388 -0.37698171 23.25685698 -0.34179688 19.87109375 C-0.26483047 13.24644666 -0.14785455 6.62342384 0 0 Z " fill="#282A50" transform="translate(191,239)"/>
<path d="M0 0 C2.9375 2.375 2.9375 2.375 5 5 C5 5.66 5 6.32 5 7 C5.66 7 6.32 7 7 7 C7 7.66 7 8.32 7 9 C12.28 9 17.56 9 23 9 C23 9.33 23 9.66 23 10 C17.06 10 11.12 10 5 10 C4.34 11.32 3.68 12.64 3 14 C0.32551748 16.67448252 -1.24251346 16.85548129 -5 17 C-8.10997683 15.41567218 -10.33005615 14.25614472 -12 11.125 C-12 7.36080495 -10.8118672 4.28189558 -8.8125 1.125 C-5.76859656 -0.76431937 -3.48301805 -0.48041628 0 0 Z M-5.8125 5.1875 C-7.25290328 6.95054109 -7.25290328 6.95054109 -6.6875 9.1875 C-6.460625 9.785625 -6.23375 10.38375 -6 11 C-4.35 11.33 -2.7 11.66 -1 12 C-1 11.34 -1 10.68 -1 10 C-0.34 9.67 0.32 9.34 1 9 C0.67 7.68 0.34 6.36 0 5 C-3.00748915 3.84137694 -3.00748915 3.84137694 -5.8125 5.1875 Z " fill="#7ECD8D" transform="translate(103,284)"/>
<path d="M0 0 C2.375 1.1875 2.375 1.1875 4 3 C4.25 5.6875 4.25 5.6875 4 8 C3.278125 7.649375 2.55625 7.29875 1.8125 6.9375 C-1.3122705 5.89590983 -2.88161996 6.10903428 -6 7 C-6.2475 7.969375 -6.495 8.93875 -6.75 9.9375 C-7.1625 10.948125 -7.575 11.95875 -8 13 C-9.32939869 13.34869474 -10.66322012 13.68076898 -12 14 C-12.95220068 14.9877714 -13.86655277 16.01278601 -14.75 17.0625 C-19.13878503 21.12188394 -24.03672546 20.48197307 -29.66503906 20.30493164 C-31.44444776 20.22456182 -33.22250817 20.11522756 -35 20 C-34.34 19.67 -33.68 19.34 -33 19 C-32.67 18.01 -32.34 17.02 -32 16 C-31.19175781 15.97421875 -30.38351563 15.9484375 -29.55078125 15.921875 C-21.41061208 15.63415849 -21.41061208 15.63415849 -15 11 C-14.46375 10.54625 -13.9275 10.0925 -13.375 9.625 C-11.78893245 7.88474077 -11.78893245 7.88474077 -10.5 4.9375 C-7.97608263 -0.00517153 -5.24622021 -0.53532859 0 0 Z " fill="#8AD295" transform="translate(259,221)"/>
<path d="M0 0 C0.66 0 1.32 0 2 0 C2.7848925 3.10219416 3.06038991 5.99737142 3.0703125 9.1796875 C2.85200698 17.75340605 2.85200698 17.75340605 5.5859375 25.62890625 C7.42815193 27.45000561 7.42815193 27.45000561 9.40625 28.80859375 C11 30 11 30 12 33 C13.34929806 48.63959112 13.34929806 48.63959112 10.47265625 53.671875 C8.73267588 55.33713229 6.99385255 56.66120212 5 58 C4.67 58.66 4.34 59.32 4 60 C3.01 59.67 2.02 59.34 1 59 C2.52237533 56.33584317 3.9521094 54.05088376 6.0625 51.80859375 C8.48155073 48.30194561 8.76551317 45.38426024 8.75 41.25 C8.75257813 40.52683594 8.75515625 39.80367188 8.7578125 39.05859375 C8.6226 35.64755115 8.38908061 33.47704667 6.203125 30.796875 C5.11257812 29.90742188 5.11257812 29.90742188 4 29 C1.29727837 26.60656869 0.12379057 24.88583635 -0.37890625 21.28857422 C-0.72043451 14.18763248 -0.43697681 7.0916294 0 0 Z " fill="#393B58" transform="translate(166,237)"/>
<path d="M0 0 C6.38197767 0.48165869 6.38197767 0.48165869 8.9375 2.625 C10.4590889 6.02619871 10.51749792 8.31282731 10 12 C7.875 14.9375 7.875 14.9375 5 17 C1.6875 17.3125 1.6875 17.3125 -1 17 C-1 16.01 -1 15.02 -1 14 C-1.33 13.01 -1.66 12.02 -2 11 C-2.23164058 6.75325612 -2.33214424 3.64397537 0 0 Z M0 5 C-0.33 6.65 -0.66 8.3 -1 10 C1.97 10.495 1.97 10.495 5 11 C5.33 10.01 5.66 9.02 6 8 C4.68798827 6.43750191 4.68798827 6.43750191 3 5 C2.01 5 1.02 5 0 5 Z " fill="#83CC8C" transform="translate(249,263)"/>
<path d="M0 0 C3.0625 0.1875 3.0625 0.1875 5.0625 2.1875 C4.6875 4.8125 4.6875 4.8125 4.0625 7.1875 C3.4025 7.1875 2.7425 7.1875 2.0625 7.1875 C2.0625 14.7775 2.0625 22.3675 2.0625 30.1875 C1.0725 30.1875 0.0825 30.1875 -0.9375 30.1875 C-0.95731934 29.53152832 -0.97713867 28.87555664 -0.99755859 28.19970703 C-1.09262507 25.23688931 -1.20237752 22.27479468 -1.3125 19.3125 C-1.3434375 18.27996094 -1.374375 17.24742187 -1.40625 16.18359375 C-1.44492188 15.19746094 -1.48359375 14.21132813 -1.5234375 13.1953125 C-1.5548584 12.28410645 -1.5862793 11.37290039 -1.61865234 10.43408203 C-1.73632511 7.98818814 -1.73632511 7.98818814 -3.9375 6.1875 C-4.125 3.625 -4.125 3.625 -3.9375 1.1875 C-2.9375 0.1875 -2.9375 0.1875 0 0 Z " fill="#383B5B" transform="translate(205.9375,290.8125)"/>
<path d="M0 0 C1.48039971 0.64300189 2.95928782 1.28948499 4.4375 1.9375 C5.26121094 2.29714844 6.08492187 2.65679687 6.93359375 3.02734375 C9 4 9 4 10 5 C10.07226502 6.85287502 10.0838122 8.70833878 10.0625 10.5625 C10.05347656 11.57441406 10.04445312 12.58632812 10.03515625 13.62890625 C10.02355469 14.41136719 10.01195312 15.19382813 10 16 C2.89384615 14.65269231 2.89384615 14.65269231 0 12 C-0.95514231 8.06167349 -1.85923345 3.71846689 0 0 Z " fill="#383861" transform="translate(202,179)"/>
<path d="M0 0 C3.65433265 0.81825274 6.6796203 2.26434698 10 4 C10 7.63 10 11.26 10 15 C2.59259259 13.51851852 2.59259259 13.51851852 0 11 C-0.43715494 7.30057635 -0.28328595 3.70789838 0 0 Z " fill="#3B3A5F" transform="translate(156,199)"/>
<path d="M0 0 C1.4540625 0.0309375 1.4540625 0.0309375 2.9375 0.0625 C5.09494275 4.50429389 5.09494275 4.50429389 4.25 7.5 C3.66876129 10.02090216 3.66876129 10.02090216 4.9765625 11.7109375 C6.238474 13.21254169 7.58396059 14.64293428 8.9375 16.0625 C8.2775 17.3825 7.6175 18.7025 6.9375 20.0625 C5.9475 20.0625 4.9575 20.0625 3.9375 20.0625 C3.999375 19.32 4.06125 18.5775 4.125 17.8125 C3.90459928 14.57995608 2.96014742 13.5065323 0.9375 11.0625 C0.9375 10.4025 0.9375 9.7425 0.9375 9.0625 C0.31875 8.93875 -0.3 8.815 -0.9375 8.6875 C-3.0625 8.0625 -3.0625 8.0625 -5.0625 6.0625 C-4.33395709 0.0884481 -4.33395709 0.0884481 0 0 Z " fill="#3B3E5C" transform="translate(170.0625,301.9375)"/>
<path d="M0 0 C0.99 0 1.98 0 3 0 C3 18.48 3 36.96 3 56 C3.99 56.33 4.98 56.66 6 57 C8.75 59.875 8.75 59.875 11 63 C10.67 63.99 10.34 64.98 10 66 C6.06640199 64.68880066 4.63798988 62.87082481 2.2567749 59.55102539 C-0.19140822 54.58165713 0.3910331 49.38457171 0.6328125 43.96875 C0.66349823 42.73709106 0.69418396 41.50543213 0.72579956 40.2364502 C0.82992879 36.32283072 0.97682614 32.4121748 1.125 28.5 C1.20683055 25.83868593 1.27890218 23.17721825 1.3515625 20.515625 C1.53528886 14.00909379 1.75409493 7.50446214 2 1 C1.34 0.67 0.68 0.34 0 0 Z " fill="#474866" transform="translate(191,239)"/>
<path d="M0 0 C0.99 0.33 1.98 0.66 3 1 C3.6875 3.0625 3.6875 3.0625 4 5 C4.66 5 5.32 5 6 5 C6 5.66 6 6.32 6 7 C11.28 7 16.56 7 22 7 C22 7.33 22 7.66 22 8 C16.06 8 10.12 8 4 8 C3.34 9.32 2.68 10.64 2 12 C-0.125 13.25 -0.125 13.25 -2 14 C-3.32 12.68 -4.64 11.36 -6 10 C-4.68 10 -3.36 10 -2 10 C-0.66666667 7 -0.66666667 7 -2 4 C-1.0625 1.8125 -1.0625 1.8125 0 0 Z " fill="#85D292" transform="translate(104,286)"/>
<path d="M0 0 C0.66 0 1.32 0 2 0 C2.9821994 3.27626375 3.11580914 6.22788119 3.09765625 9.640625 C3.09443359 10.71054688 3.09121094 11.78046875 3.08789062 12.8828125 C3.07951172 13.99398437 3.07113281 15.10515625 3.0625 16.25 C3.05798828 17.37664062 3.05347656 18.50328125 3.04882812 19.6640625 C3.03705397 22.44276217 3.0206084 25.22135409 3 28 C2.01 28 1.02 28 0 28 C0 18.76 0 9.52 0 0 Z " fill="#393A56" transform="translate(200,237)"/>
<path d="M0 0 C0 0.66 0 1.32 0 2 C0.66 2.33 1.32 2.66 2 3 C1.96519531 3.61488281 1.93039063 4.22976562 1.89453125 4.86328125 C1.86746094 5.67152344 1.84039062 6.47976562 1.8125 7.3125 C1.77769531 8.11300781 1.74289063 8.91351563 1.70703125 9.73828125 C2.06198392 12.47851584 2.89366282 13.29171079 5 15 C4.34 15.66 3.68 16.32 3 17 C3 16.34 3 15.68 3 15 C2.01 14.67 1.02 14.34 0 14 C0 13.34 0 12.68 0 12 C-1.65 12 -3.3 12 -5 12 C-5.33 11.34 -5.66 10.68 -6 10 C-4.02 10 -2.04 10 0 10 C-0.33 8.35 -0.66 6.7 -1 5 C-2.98491642 5.26676204 -2.98491642 5.26676204 -5 6 C-5.33 6.99 -5.66 7.98 -6 9 C-6.33 7.68 -6.66 6.36 -7 5 C-7.99 5.33 -8.98 5.66 -10 6 C-8.54794521 1.40182648 -8.54794521 1.40182648 -6.125 -0.375 C-3.6665651 -1.09806909 -2.38500154 -0.85178626 0 0 Z " fill="#8DCF98" transform="translate(114,222)"/>
<path d="M0 0 C2.99488808 0.98319321 4.59812802 2.26944137 6.89453125 4.41015625 C7.59191406 5.05082031 8.28929687 5.69148437 9.0078125 6.3515625 C9.52730469 6.84527344 10.04679687 7.33898437 10.58203125 7.84765625 C10.26953125 9.78515625 10.26953125 9.78515625 9.58203125 11.84765625 C8.59203125 12.17765625 7.60203125 12.50765625 6.58203125 12.84765625 C6.10765625 11.71328125 5.63328125 10.57890625 5.14453125 9.41015625 C3.74197861 6.8804613 3.11990381 6.01059183 0.3125 5.16015625 C-1.94811183 4.93231506 -4.14690027 4.81368728 -6.41796875 4.84765625 C-5.19702121 1.18481362 -4.01066594 -0.25269139 0 0 Z " fill="#46496C" transform="translate(185.41796875,187.15234375)"/>
<path d="M0 0 C0.33 0 0.66 0 1 0 C1.33 1.65 1.66 3.3 2 5 C3.65 5.33 5.3 5.66 7 6 C7 4.02 7 2.04 7 0 C7.33 0 7.66 0 8 0 C8 1.98 8 3.96 8 6 C10.10448938 5.85890014 12.2085877 5.71195825 14.3125 5.5625 C16.07013672 5.44068359 16.07013672 5.44068359 17.86328125 5.31640625 C21.02590958 5.1132629 21.02590958 5.1132629 24 4 C24 5.32 24 6.64 24 8 C20.74610012 10.16926659 19.86604043 10.24080049 16.11328125 10.1953125 C14.7065918 10.18564453 14.7065918 10.18564453 13.27148438 10.17578125 C11.80678711 10.15064453 11.80678711 10.15064453 10.3125 10.125 C9.32443359 10.11597656 8.33636719 10.10695312 7.31835938 10.09765625 C4.87866235 10.0740843 2.43945303 10.04118022 0 10 C0 9.67 0 9.34 0 9 C5.94 9 11.88 9 18 9 C18 8.34 18 7.68 18 7 C12.06 7 6.12 7 0 7 C0 4.69 0 2.38 0 0 Z " fill="#9BD8A4" transform="translate(219,243)"/>
<path d="M0 0 C0.99 0.33 1.98 0.66 3 1 C2.67 3.97 2.34 6.94 2 10 C5.48935471 12.32623648 6.90482598 12.25072494 11 12 C13.26566343 11.56058477 13.26566343 11.56058477 15 11 C13.03542337 13.8240789 11.59980623 14.10496886 8.1875 15 C4.87948826 15.31069724 3.22440073 14.88818855 0.625 12.8125 C-3.2173913 8.69565217 -3.2173913 8.69565217 -4 6 C-3.8125 3.875 -3.8125 3.875 -3 2 C-2.01 1.34 -1.02 0.68 0 0 Z " fill="#6F708C" transform="translate(176,191)"/>
<path d="M0 0 C0.99 0.33 1.98 0.66 3 1 C4.62567079 1.14715199 6.25586857 1.24721867 7.88671875 1.31640625 C8.82451172 1.35830078 9.76230469 1.40019531 10.72851562 1.44335938 C11.70498047 1.48267578 12.68144531 1.52199219 13.6875 1.5625 C15.16959961 1.62727539 15.16959961 1.62727539 16.68164062 1.69335938 C19.12095546 1.79941654 21.56037113 1.90147714 24 2 C24 2.33 24 2.66 24 3 C20.7 3.33 17.4 3.66 14 4 C16.97 4.33 19.94 4.66 23 5 C23 5.33 23 5.66 23 6 C19.75030231 6.11638036 16.5011417 6.18730581 13.25 6.25 C12.32960937 6.28351563 11.40921875 6.31703125 10.4609375 6.3515625 C3.59101089 6.45112665 3.59101089 6.45112665 0.359375 3.984375 C-0.31351562 3.00210938 -0.31351562 3.00210938 -1 2 C-0.67 1.34 -0.34 0.68 0 0 Z " fill="#8DD497" transform="translate(125,247)"/>
<path d="M0 0 C3.63 0 7.26 0 11 0 C11 1.98 11 3.96 11 6 C7.37 6 3.74 6 0 6 C0 4.02 0 2.04 0 0 Z " fill="#3A395C" transform="translate(216,192)"/>
<path d="M0 0 C2.8342324 0.08335978 4.55701545 0.61391255 6.703125 2.484375 C9.86870106 5.94579928 9.86870106 5.94579928 11 8 C10.60470956 11.43010088 9.08096236 13.31209028 7 16 C6.67 16.99 6.34 17.98 6 19 C5.01 18.67 4.02 18.34 3 18 C2.3125 15.9375 2.3125 15.9375 2 14 C3.32 13.67 4.64 13.34 6 13 C6.82016119 11.22112775 6.82016119 11.22112775 7 9 C5.58973986 6.8023049 5.58973986 6.8023049 3.5625 4.8125 C0 1.05479452 0 1.05479452 0 0 Z " fill="#3B3F5F" transform="translate(178,305)"/>
<path d="M0 0 C2.5625 0.1875 2.5625 0.1875 4.5625 2.1875 C4.32486269 6.58379018 2.42106441 8.96008856 -0.4375 12.1875 C-0.72625 11.40375 -1.015 10.62 -1.3125 9.8125 C-2.28662254 7.09078368 -2.28662254 7.09078368 -4.4375 5.1875 C-3.69457547 0.28419811 -3.69457547 0.28419811 0 0 Z " fill="#343856" transform="translate(166.4375,271.8125)"/>
<path d="M0 0 C0.33 0 0.66 0 1 0 C1.8016463 3.72529751 2.31239277 7.1898325 2 11 C0.0802845 13.92332012 -2.29890851 15.82517751 -5 18 C-5.33 18.66 -5.66 19.32 -6 20 C-6.99 19.67 -7.98 19.34 -9 19 C-7.4570989 16.29992307 -5.98637857 13.98517668 -3.875 11.6875 C-1.34515399 8.06138739 -1.36458138 5.3749766 -1 1 C-0.67 0.67 -0.34 0.34 0 0 Z " fill="#373B57" transform="translate(176,277)"/>
<path d="M0 0 C0.99 0.33 1.98 0.66 3 1 C3.06058594 2.13179687 3.12117187 3.26359375 3.18359375 4.4296875 C3.26799917 5.91147145 3.35264717 7.3932416 3.4375 8.875 C3.47681641 9.62136719 3.51613281 10.36773437 3.55664062 11.13671875 C3.71573624 15.19986864 3.71573624 15.19986864 5 19 C3.0625 19.5625 3.0625 19.5625 1 20 C0 19 0 19 -0.11352539 17.14233398 C-0.10828857 16.35157471 -0.10305176 15.56081543 -0.09765625 14.74609375 C-0.09443359 13.89208984 -0.09121094 13.03808594 -0.08789062 12.15820312 C-0.07951172 11.26037109 -0.07113281 10.36253906 -0.0625 9.4375 C-0.05798828 8.53580078 -0.05347656 7.63410156 -0.04882812 6.70507812 C-0.03700225 4.46998686 -0.0205222 2.23502563 0 0 Z " fill="#333354" transform="translate(174,239)"/>
<path d="M0 0 C2.9375 0.8125 2.9375 0.8125 4.9375 2.8125 C5.0625 5.4375 5.0625 5.4375 4.9375 7.8125 C4.23625 7.461875 3.535 7.11125 2.8125 6.75 C-0.56518586 5.6485807 -2.64330593 6.01733859 -6.0625 6.8125 C-6.0625 2.8125 -6.0625 2.8125 -4.9375 1 C-3.0625 -0.1875 -3.0625 -0.1875 0 0 Z " fill="#80CE8C" transform="translate(258.0625,221.1875)"/>
<path d="M0 0 C2.625 0.3125 2.625 0.3125 4.4375 1.875 C6.01683172 5.11678616 5.83021796 7.75538878 5.625 11.3125 C4.635 11.3125 3.645 11.3125 2.625 11.3125 C0.625 7.5625 0.625 7.5625 0.625 5.3125 C-0.035 5.3125 -0.695 5.3125 -1.375 5.3125 C-2.035 3.9925 -2.695 2.6725 -3.375 1.3125 C-2.375 0.3125 -2.375 0.3125 0 0 Z " fill="#74CA80" transform="translate(253.375,263.6875)"/>
<path d="M0 0 C1.69141656 0.08963062 3.37959602 0.24577676 5.0625 0.4375 C6.44115234 0.59025391 6.44115234 0.59025391 7.84765625 0.74609375 C8.55792969 0.82988281 9.26820313 0.91367188 10 1 C10 2.65 10 4.3 10 6 C6.37 6 2.74 6 -1 6 C-1 1 -1 1 0 0 Z " fill="#313150" transform="translate(142,191)"/>
<path d="M0 0 C0.66 0 1.32 0 2 0 C2.66 1.98 3.32 3.96 4 6 C5.65 6.33 7.3 6.66 9 7 C9.33 7.99 9.66 8.98 10 10 C9.34 10.66 8.68 11.32 8 12 C1.25 9.375 1.25 9.375 -1 6 C-1.1875 3.375 -1.1875 3.375 -1 1 C-0.67 0.67 -0.34 0.34 0 0 Z " fill="#7ACC86" transform="translate(105,227)"/>
<path d="M0 0 C2.62434747 0.36197896 3.82013689 0.82656057 5.75 2.6875 C7.32663401 5.60427292 7.22275681 7.73290013 7 11 C5.02 11.99 5.02 11.99 3 13 C1.39274365 9.78548731 1.94251815 6.56387464 2 3 C0.68 2.67 -0.64 2.34 -2 2 C-1.34 2 -0.68 2 0 2 C0 1.34 0 0.68 0 0 Z " fill="#7CCC89" transform="translate(113,222)"/>
<path d="M0 0 C1.32 0.66 2.64 1.32 4 2 C4 3.65 4 5.3 4 7 C2.02 7.99 2.02 7.99 0 9 C-0.99 8.34 -1.98 7.68 -3 7 C-2.25 2.25 -2.25 2.25 0 0 Z " fill="#7ACF7C" transform="translate(159,314)"/>
<path d="M0 0 C2.97 0 5.94 0 9 0 C9 1.65 9 3.3 9 5 C6.03 5 3.06 5 0 5 C0 3.35 0 1.7 0 0 Z " fill="#383758" transform="translate(143,203)"/>
<path d="M0 0 C2.97 0 5.94 0 9 0 C9 1.65 9 3.3 9 5 C6.03 5 3.06 5 0 5 C0 3.35 0 1.7 0 0 Z " fill="#31305A" transform="translate(216,203)"/>
<path d="M0 0 C1.65 0 3.3 0 5 0 C5.38133299 1.9914056 5.71325582 3.99279077 6 6 C5 7 5 7 2.4375 7.0625 C1.2309375 7.0315625 1.2309375 7.0315625 0 7 C-1.125 2.25 -1.125 2.25 0 0 Z " fill="#79D383" transform="translate(199,266)"/>
<path d="M0 0 C0.33 0 0.66 0 1 0 C1.03738281 1.25296875 1.07476562 2.5059375 1.11328125 3.796875 C1.17894885 5.44794621 1.24539593 7.09898655 1.3125 8.75 C1.33505859 9.575 1.35761719 10.4 1.38085938 11.25 C1.61548917 17.20685857 1.61548917 17.20685857 5 22 C4.34 22.66 3.68 23.32 3 24 C1.35 22.02 -0.3 20.04 -2 18 C-1.34 18 -0.68 18 0 18 C0 12.06 0 6.12 0 0 Z " fill="#5F6177" transform="translate(168,242)"/>
<path d="M0 0 C3.26460973 1.80412643 4.88929795 2.83394693 7 6 C7 7.32 7 8.64 7 10 C4.093479 8.6970768 2.19164592 7.29126619 0 5 C-0.66 4.67 -1.32 4.34 -2 4 C-1.34 2.68 -0.68 1.36 0 0 Z " fill="#9ADCA3" transform="translate(120,230)"/>
<path d="M0 0 C0.33 0.66 0.66 1.32 1 2 C3.02463255 2.65213292 3.02463255 2.65213292 5 3 C4.67 4.32 4.34 5.64 4 7 C2.35 7 0.7 7 -1 7 C-1.625 4.625 -1.625 4.625 -2 2 C-1.34 1.34 -0.68 0.68 0 0 Z " fill="#8C8FA2" transform="translate(167,302)"/>
<path d="M0 0 C1.65 0 3.3 0 5 0 C3.02 0.99 3.02 0.99 1 2 C0.67 1.34 0.34 0.68 0 0 Z M0 2 C0.99 2.99 1.98 3.98 3 5 C2.01 5 1.02 5 0 5 C-0.33 6.65 -0.66 8.3 -1 10 C1.97 10.495 1.97 10.495 5 11 C4.67 11.66 4.34 12.32 4 13 C-0.875 12.125 -0.875 12.125 -2 11 C-2.1875 7.5625 -2.1875 7.5625 -2 4 C-1.34 3.34 -0.68 2.68 0 2 Z " fill="#B4E1BB" transform="translate(249,263)"/>
<path d="M0 0 C1.98 0 3.96 0 6 0 C6 1.65 6 3.3 6 5 C3.36 5 0.72 5 -2 5 C-1.34 3.35 -0.68 1.7 0 0 Z " fill="#323052" transform="translate(146,181)"/>
<path d="M0 0 C0.33 0 0.66 0 1 0 C1 3.63 1 7.26 1 11 C-0.32 10.34 -1.64 9.68 -3 9 C-2.25 2.25 -2.25 2.25 0 0 Z " fill="#78CD83" transform="translate(197,178)"/>
<path d="M0 0 C2.97 0.495 2.97 0.495 6 1 C6 2.32 6 3.64 6 5 C3.69 5 1.38 5 -1 5 C-0.67 3.35 -0.34 1.7 0 0 Z " fill="#3F3F60" transform="translate(217,181)"/>
<path d="M0 0 C1.67542976 0.28604898 3.34385343 0.61781233 5 1 C4.67 2.32 4.34 3.64 4 5 C2.68 5.33 1.36 5.66 0 6 C-0.38218767 4.34385343 -0.71395102 2.67542976 -1 1 C-0.67 0.67 -0.34 0.34 0 0 Z " fill="#3D4164" transform="translate(182,195)"/>
<path d="M0 0 C2.62187494 1.04874998 3.79371361 1.64931313 5.25 4.125 C5.4975 4.74375 5.745 5.3625 6 6 C5.01 7.485 5.01 7.485 4 9 C3.01 9 2.02 9 1 9 C1.020625 8.2575 1.04125 7.515 1.0625 6.75 C1.00671312 4.29537721 0.6930096 2.33890739 0 0 Z " fill="#454865" transform="translate(173,313)"/>
<path d="M0 0 C0.99 0.33 1.98 0.66 3 1 C2.34 2.65 1.68 4.3 1 6 C-0.65 6 -2.3 6 -4 6 C-3.6875 4.125 -3.6875 4.125 -3 2 C-2.01 1.34 -1.02 0.68 0 0 Z " fill="#3D3D63" transform="translate(176,191)"/>
<path d="M0 0 C3.3125 -0.1875 3.3125 -0.1875 7 0 C7.99 0.99 8.98 1.98 10 3 C3.565 3.495 3.565 3.495 -3 4 C-2.34 3.67 -1.68 3.34 -1 3 C-0.67 2.01 -0.34 1.02 0 0 Z " fill="#82CE8D" transform="translate(227,237)"/>
<path d="M0 0 C1.2065625 0.0309375 1.2065625 0.0309375 2.4375 0.0625 C2.4375 3.16801666 1.8981285 4.41511084 0.4375 7.0625 C0.4375 6.4025 0.4375 5.7425 0.4375 5.0625 C-0.2225 5.0625 -0.8825 5.0625 -1.5625 5.0625 C-2.2225 3.7425 -2.8825 2.4225 -3.5625 1.0625 C-2.5625 0.0625 -2.5625 0.0625 0 0 Z " fill="#84D18E" transform="translate(253.5625,263.9375)"/>
<path d="M0 0 C0.66 0.66 1.32 1.32 2 2 C1.01 3.98 0.02 5.96 -1 8 C-1.99 7.67 -2.98 7.34 -4 7 C-4.6875 4.9375 -4.6875 4.9375 -5 3 C-4.360625 2.87625 -3.72125 2.7525 -3.0625 2.625 C-2.0415625 2.315625 -2.0415625 2.315625 -1 2 C-0.67 1.34 -0.34 0.68 0 0 Z " fill="#515270" transform="translate(185,316)"/>
<path d="M0 0 C2.4375 0.75 2.4375 0.75 5 2 C5.8125 4.125 5.8125 4.125 6 6 C3.11424181 5.60196439 2.17810487 5.20990931 0.25 2.9375 C-0.1625 2.298125 -0.575 1.65875 -1 1 C-0.67 0.67 -0.34 0.34 0 0 Z " fill="#393C5D" transform="translate(185,299)"/>
<path d="M0 0 C2.64 0 5.28 0 8 0 C8 0.66 8 1.32 8 2 C9.45833358 3.62514468 9.45833358 3.62514468 11 5 C10.34 5.66 9.68 6.32 9 7 C9 6.34 9 5.68 9 5 C8.01 4.67 7.02 4.34 6 4 C6 3.34 6 2.68 6 2 C4.35 2 2.7 2 1 2 C0.67 1.34 0.34 0.68 0 0 Z " fill="#ADDAB6" transform="translate(108,232)"/>
<path d="M0 0 C1.32 0.66 2.64 1.32 4 2 C4 2.99 4 3.98 4 5 C3.01 5.33 2.02 5.66 1 6 C0.34 4.35 -0.32 2.7 -1 1 C-0.67 0.67 -0.34 0.34 0 0 Z " fill="#3C3F66" transform="translate(189,190)"/>
<path d="M0 0 C0.99 0.33 1.98 0.66 3 1 C2.67 3.31 2.34 5.62 2 8 C1.34 8 0.68 8 0 8 C0 5.36 0 2.72 0 0 Z " fill="#272549" transform="translate(183,244)"/>
<path d="M0 0 C0.66 0.33 1.32 0.66 2 1 C2 2.65 2 4.3 2 6 C-0.46800047 4.84826645 -2.04783565 3.95216435 -4 2 C-2.68 2 -1.36 2 0 2 C0 1.34 0 0.68 0 0 Z " fill="#8FD29D" transform="translate(102,294)"/>
<path d="M0 0 C1.32 0.33 2.64 0.66 4 1 C3.67 2.32 3.34 3.64 3 5 C2.01 4.67 1.02 4.34 0 4 C0 2.68 0 1.36 0 0 Z " fill="#3C3A57" transform="translate(149,214)"/>
<path d="M0 0 C0.66 0.33 1.32 0.66 2 1 C2 2.65 2 4.3 2 6 C1.01 6 0.02 6 -1 6 C-1.042721 4.33388095 -1.04063832 2.66617115 -1 1 C-0.67 0.67 -0.34 0.34 0 0 Z " fill="#353F5D" transform="translate(175,326)"/>
<path d="M0 0 C0.99 0.33 1.98 0.66 3 1 C2.67 1.99 2.34 2.98 2 4 C1.01 4 0.02 4 -1 4 C-0.67 2.68 -0.34 1.36 0 0 Z " fill="#373E62" transform="translate(217,214)"/>
<path d="M0 0 C0.33 0 0.66 0 1 0 C1 1.98 1 3.96 1 6 C0.34 6 -0.32 6 -1 6 C-1.042721 4.33388095 -1.04063832 2.66617115 -1 1 C-0.67 0.67 -0.34 0.34 0 0 Z " fill="#383E5E" transform="translate(183,325)"/>
<path d="M0 0 C0.33 0 0.66 0 1 0 C1.625 3.375 1.625 3.375 2 7 C1.34 7.66 0.68 8.32 0 9 C0 6.03 0 3.06 0 0 Z " fill="#7BD585" transform="translate(170,207)"/>
<path d="M0 0 C0.99 0.33 1.98 0.66 3 1 C3 1.66 3 2.32 3 3 C2.01 3 1.02 3 0 3 C0 2.01 0 1.02 0 0 Z " fill="#444C6A" transform="translate(216,173)"/>
<path d="M0 0 C0.66 0 1.32 0 2 0 C2 0.99 2 1.98 2 3 C1.01 3 0.02 3 -1 3 C-0.67 2.01 -0.34 1.02 0 0 Z " fill="#484A60" transform="translate(150,173)"/>
<path d="M0 0 C0.33 0 0.66 0 1 0 C1 1.98 1 3.96 1 6 C0.34 5.67 -0.32 5.34 -1 5 C-0.67 3.35 -0.34 1.7 0 0 Z " fill="#79D385" transform="translate(181,215)"/>
<path d="M0 0 C0.66 0.66 1.32 1.32 2 2 C1.34 2 0.68 2 0 2 C0 1.34 0 0.68 0 0 Z " fill="#7BD280" transform="translate(208,322)"/>
<path d="" fill="#7ED083" transform="translate(0,0)"/>
<path d="" fill="#7ECE80" transform="translate(0,0)"/>
<path d="" fill="#80D283" transform="translate(0,0)"/>
<path d="" fill="#81D283" transform="translate(0,0)"/>
<path d="" fill="#7FCD84" transform="translate(0,0)"/>
<path d="" fill="#F6F6F4" transform="translate(0,0)"/>
<path d="" fill="#7DD487" transform="translate(0,0)"/>
<path d="" fill="#7DD485" transform="translate(0,0)"/>
<path d="" fill="#7DD485" transform="translate(0,0)"/>
<path d="" fill="#80CB86" transform="translate(0,0)"/>
<path d="" fill="#7BD789" transform="translate(0,0)"/>
<path d="" fill="#7DDC86" transform="translate(0,0)"/>
<path d="" fill="#737588" transform="translate(0,0)"/>
<path d="" fill="#7ED384" transform="translate(0,0)"/>
<path d="" fill="#7ED085" transform="translate(0,0)"/>
<path d="" fill="#7CD786" transform="translate(0,0)"/>
</svg>
